<svg xmlns="http://www.w3.org/2000/svg" height="40" viewBox="0 -960 960 960" width="40"><path d="M480-120q-74.546 0-140.246-28.35t-114.377-77.027Q176.7-274.054 148.35-339.754 120-405.454 120-480h33.846q0 128.947 87.218 222.589t216.115 103.155l-63.076-63.59 23.282-23.282 116.153 116.154q-13.007 3.555-26.749 4.265Q493.048-120 480-120Zm35.231-250.051v-220.565h112.718q17.108 0 29.118 12.011 12.01 12.01 12.01 29.118v138.308q0 17.107-12.01 29.118-12.01 12.01-29.118 12.01H515.231Zm-223.641 0v-31.641h121.538v-63.077h-80.564v-30.616h80.564v-62.923H291.59v-32.308h124.381q12.521 0 20.993 8.472 8.472 8.472 8.472 20.349v162.755q0 12.558-8.47 20.773-8.471 8.216-20.992 8.216H291.59Zm255.282-31.641h80.667q4.615 0 6.923-2.308 2.307-2.308 2.307-6.923v-138.154q0-4.616-2.307-6.923-2.308-2.308-6.923-2.308h-80.667v156.616ZM806.154-480q0-129.051-86.885-222.641-86.884-93.59-216.295-103.103l63.436 63.436-23.795 23.282-116.153-116.667q13.051-2.871 26.778-3.589Q466.966-840 480-840q74.644 0 140.295 28.35 65.651 28.35 114.328 77.027 48.677 48.677 77.027 114.328Q840-554.644 840-480h-33.846Z"/></svg>