<svg xmlns="http://www.w3.org/2000/svg" height="24" viewBox="0 -960 960 960" width="24"><path d="M240.09-60q-41.629 0-70.859-29.14Q140-118.28 140-159.91q0-41.629 29.173-70.859Q198.347-260 240.023-260q11.669 0 24.439 3.384 12.769 3.385 23.769 9.154l101.615-126.384Q368-397.154 360.077-425.385q-7.923-28.23-2.693-57.23l-149.461-49.308q-13.154 23.462-36.297 37.692Q148.484-480 120-480q-41.667 0-70.833-29.14Q20-538.281 20-579.909q0-41.63 29.14-70.86Q78.28-680 119.91-680q41.629 0 70.859 29.167Q220-621.667 220-580q0 5.077-.384 7.846-.385 2.769-.385 5.539l148.692 51.846Q381-540 405.269-558.846q24.269-18.847 57.039-24.308v-158.538q-38.231-7.154-60.27-35.577Q380-805.692 380-840.318q0-41.221 29.14-70.451Q438.28-940 479.91-940q41.629 0 70.859 29.167Q580-881.667 580-840q0 34.308-22.154 62.731-22.154 28.423-60.154 35.577v158.538q32.77 5.461 56.654 24.308 23.885 18.846 37.731 44.077l148.692-51.846q-.769-3.539-.769-5.923V-580q0-41.667 29.14-70.833Q798.281-680 839.909-680q41.63 0 70.86 29.14Q940-621.719 940-580.091q0 41.63-29.167 70.86Q881.667-480 840-480q-28.235 0-51.618-14.231-23.382-14.23-36.305-37.692l-149.461 49.308q5.23 29-2.693 57.115-7.923 28.116-29.769 50.885l101.615 126.153q11-5 23.769-8.269Q708.308-260 719.977-260q41.676 0 70.85 29.14Q820-201.72 820-160.09q0 41.629-29.14 70.86Q761.719-60 720.091-60q-41.63 0-70.86-29.167Q620-118.333 620-160q0-17.841 5.731-34.343 5.73-16.503 19.038-30.734L543.154-353Q516-335.384 480.269-335.384q-35.731 0-63.654-17.616L315.231-225.077q12.538 14.231 18.654 30.734Q340-177.841 340-160q0 41.667-29.14 70.833Q281.72-60 240.09-60ZM120-520q24.692 0 42.346-17.654Q180-555.308 180-580q0-24.692-17.654-42.346Q144.692-640 120-640q-24.692 0-42.346 17.654Q60-604.692 60-580q0 24.692 17.654 42.346Q95.308-520 120-520Zm120 420q24.692 0 42.346-17.654Q300-135.308 300-160q0-24.692-17.654-42.346Q264.692-220 240-220q-24.692 0-42.346 17.654Q180-184.692 180-160q0 24.692 17.654 42.346Q215.308-100 240-100Zm240-680q24.692 0 42.346-17.654Q540-815.308 540-840q0-24.692-17.654-42.346Q504.692-900 480-900q-24.692 0-42.346 17.654Q420-864.692 420-840q0 24.692 17.654 42.346Q455.308-780 480-780Zm0 404.615q35.077 0 59.846-24.769T564.615-460q0-35.077-24.769-59.846T480-544.615q-35.077 0-59.846 24.769T395.385-460q0 35.077 24.769 59.846T480-375.385ZM720-100q24.692 0 42.346-17.654Q780-135.308 780-160q0-24.692-17.654-42.346Q744.692-220 720-220q-24.692 0-42.346 17.654Q660-184.692 660-160q0 24.692 17.654 42.346Q695.308-100 720-100Zm120-420q24.692 0 42.346-17.654Q900-555.308 900-580q0-24.692-17.654-42.346Q864.692-640 840-640q-24.692 0-42.346 17.654Q780-604.692 780-580q0 24.692 17.654 42.346Q815.308-520 840-520ZM480-840ZM120-580Zm360 120Zm360-120ZM240-160Zm480 0Z"/></svg>